<?xml version="1.0" encoding="UTF-8"?>
<svg xmlns="http://www.w3.org/2000/svg" xmlns:xlink="http://www.w3.org/1999/xlink" viewBox="0 0 48 48" version="1.1" width="96px" height="96px">
<g id="surface1">
<path style=" fill:#006064;" d="M 42 37 C 42 39.761719 39.761719 42 37 42 L 11 42 C 8.238281 42 6 39.761719 6 37 L 6 11 C 6 8.238281 8.238281 6 11 6 L 37 6 C 39.761719 6 42 8.238281 42 11 Z "/>
<path style=" fill:#FFFFFF;" d="M 16.648438 30 L 12.609375 30 C 12.367188 30 12.183594 29.890625 12.082031 29.726563 C 11.976563 29.554688 11.96875 29.328125 12.082031 29.113281 L 16.375 21.589844 C 16.378906 21.578125 16.378906 21.574219 16.375 21.566406 L 13.644531 16.867188 C 13.527344 16.648438 13.511719 16.425781 13.621094 16.253906 C 13.722656 16.085938 13.925781 16 14.167969 16 L 18.207031 16 C 18.828125 16 19.132813 16.398438 19.332031 16.753906 C 19.332031 16.753906 22.09375 21.539063 22.109375 21.566406 C 21.945313 21.851563 17.75 29.222656 17.75 29.222656 C 17.542969 29.59375 17.25 30 16.648438 30 Z "/>
<path style=" fill:#CDDC39;" d="M 35.914063 11.882813 L 26.972656 27.6875 C 26.96875 27.699219 26.96875 27.707031 26.972656 27.714844 L 32.664063 38.117188 C 32.777344 38.34375 32.78125 38.570313 32.675781 38.742188 C 32.570313 38.90625 32.382813 39 32.140625 39 L 28.105469 39 C 27.488281 39 27.179688 38.589844 26.980469 38.230469 C 26.980469 38.230469 21.253906 27.730469 21.238281 27.703125 C 21.527344 27.199219 30.222656 11.769531 30.222656 11.769531 C 30.441406 11.382813 30.703125 11 31.304688 11 L 35.386719 11 C 35.628906 11 35.820313 11.089844 35.921875 11.257813 C 36.027344 11.429688 36.023438 11.65625 35.914063 11.882813 Z "/>
</g>
</svg>
